<?xml version="1.0" standalone="no"?>
<!DOCTYPE svg PUBLIC "-//W3C//DTD SVG 20010904//EN"
 "http://www.w3.org/TR/2001/REC-SVG-20010904/DTD/svg10.dtd">
<svg version="1.0" xmlns="http://www.w3.org/2000/svg"
 width="357.000000pt" height="357.000000pt" viewBox="0 0 357.000000 357.000000"
 preserveAspectRatio="xMidYMid meet">
<metadata>
Created by potrace 1.11, written by Peter Selinger 2001-2013
</metadata>
<g transform="translate(0.000000,357.000000) scale(0.100000,-0.100000)"
fill="#000000" stroke="none">
<path d="M1576 3560 c-619 -78 -1140 -455 -1401 -1013 -58 -124 -100 -253
-132 -406 -24 -114 -27 -146 -27 -336 0 -190 3 -222 27 -336 153 -724 672
-1243 1396 -1396 114 -24 146 -27 336 -27 190 0 222 3 336 27 724 153 1243
672 1396 1396 24 114 27 146 27 336 0 190 -3 222 -27 336 -153 722 -675 1246
-1390 1395 -136 28 -413 40 -541 24z m-764 -649 c148 -38 293 -121 378 -218
47 -54 80 -112 80 -142 0 -11 3 -22 8 -24 4 -3 41 4 82 15 59 16 110 21 240
22 91 0 188 -2 215 -6 128 -19 275 -68 383 -130 30 -17 57 -26 61 -22 4 5 13
27 19 49 17 57 72 127 118 150 21 11 41 23 44 27 8 10 110 36 170 43 31 3 107
-1 175 -10 140 -19 185 -15 316 27 53 17 103 28 113 25 27 -11 19 -53 -15 -82
-83 -69 -174 -92 -292 -75 -115 17 -303 14 -379 -6 -85 -21 -152 -60 -198
-112 -44 -49 -78 -132 -55 -132 7 0 20 -2 27 -5 10 -4 21 8 33 35 66 147 271
205 567 160 101 -15 168 -5 251 36 26 14 47 20 47 16 0 -19 -39 -121 -70 -182
-133 -264 -344 -382 -582 -326 -32 7 -58 12 -58 11 0 -1 11 -28 24 -61 45
-111 65 -251 49 -347 -4 -30 -9 -37 -22 -31 -9 3 -56 11 -106 16 -123 14 -189
40 -246 99 -45 45 -89 134 -89 179 0 34 -12 50 -37 50 -25 0 -25 -2 -21 -53 5
-66 57 -178 100 -219 44 -42 118 -88 140 -88 10 0 18 -2 18 -5 0 -3 -21 -26
-47 -52 -52 -52 -83 -89 -83 -100 0 -3 -12 -35 -26 -71 -14 -35 -29 -83 -32
-105 -7 -41 -8 -42 -51 -45 -28 -2 -47 1 -52 10 -7 10 -9 10 -9 1 0 -10 -48
-13 -205 -13 l-205 0 -12 25 c-10 22 -8 29 15 53 28 29 50 76 40 86 -14 14
-52 5 -58 -14 -16 -50 -94 -75 -159 -51 -22 9 -26 7 -35 -19 -11 -33 -3 -38
83 -49 l49 -6 41 -120 c143 -416 333 -531 489 -295 40 60 86 170 113 268 l18
64 120 -6 c67 -3 136 -5 154 -6 24 0 32 -4 32 -17 -1 -42 -150 -283 -193 -310
-34 -22 -160 -169 -181 -212 -35 -68 -49 -135 -37 -176 5 -19 7 -35 5 -38 -7
-7 -317 60 -404 88 -266 85 -485 213 -660 386 -84 82 -150 160 -150 177 0 6
-3 12 -8 14 -12 5 -68 98 -96 159 -74 164 -92 371 -49 574 12 55 24 118 28
140 15 100 7 93 90 87 41 -2 75 -1 75 4 -1 42 -12 51 -71 57 -97 9 -205 92
-253 196 -22 49 -24 105 -15 394 l4 117 30 6 c81 15 233 -14 326 -61 81 -42
190 -149 229 -226 19 -36 22 -38 45 -27 14 6 25 17 25 23 0 7 -22 43 -49 82
-130 185 -336 284 -558 269 -85 -6 -94 -5 -113 14 -18 18 -19 24 -9 37 8 8 22
19 34 24 30 14 201 2 287 -20z m1727 -1360 c52 -27 114 -94 145 -156 26 -53
62 -182 54 -191 -3 -2 -113 0 -244 7 -131 6 -258 10 -281 9 -51 -1 -53 6 -24
99 34 110 106 202 185 237 45 19 120 17 165 -5z m-436 -399 c3 -4 -4 -32 -15
-62 -10 -30 -20 -63 -23 -73 -2 -11 -22 -56 -44 -102 -100 -205 -207 -195
-327 31 -36 67 -84 185 -84 204 0 11 487 13 493 2z"/>
<path d="M928 2243 c6 -2 18 -2 25 0 6 3 1 5 -13 5 -14 0 -19 -2 -12 -5z"/>
<path d="M2210 2050 l-75 -69 20 -20 20 -20 77 66 c76 65 77 66 60 89 -9 13
-19 23 -22 23 -3 0 -39 -31 -80 -69z"/>
<path d="M1556 2048 c-18 -26 -23 -21 77 -87 74 -50 79 -52 93 -34 18 23 14
43 -11 57 -11 6 -31 18 -45 27 -14 8 -42 25 -62 38 l-36 22 -16 -23z"/>
<path d="M2258 1946 c-21 -15 -36 -80 -28 -118 6 -30 34 -68 50 -68 6 0 22 11
35 25 33 32 35 110 4 149 -23 29 -36 32 -61 12z"/>
<path d="M1521 1885 c-39 -51 -40 -139 0 -189 35 -44 87 -29 110 31 40 107
-49 235 -110 158z"/>
<path d="M2314 1444 c-20 -29 -22 -111 -4 -144 27 -50 90 7 90 82 0 82 -50
118 -86 62z"/>
<path d="M2542 1421 c-19 -55 17 -141 59 -141 38 0 50 62 24 123 -23 54 -67
64 -83 18z"/>
<path d="M1891 1021 c-11 -7 -12 -17 -4 -50 6 -23 7 -43 2 -47 -8 -5 -49 52
-49 68 0 4 -9 9 -20 13 -25 8 -80 -21 -80 -43 0 -35 60 -122 95 -139 33 -16
37 -16 70 0 41 20 69 62 85 129 10 38 9 52 0 63 -14 16 -77 20 -99 6z"/>
</g>
</svg>
